<?xml version="1.0" standalone="no"?>
<!DOCTYPE svg PUBLIC "-//W3C//DTD SVG 1.1//EN" "http://www.w3.org/Graphics/SVG/1.1/DTD/svg11.dtd" >
<svg>
<metadata>
Created by FontForge 20110222 at Mon Mar  7 13:17:23 2011
 By www-data
Copyright (c) 2008-2010 by Samuel Carnoky. All rights reserved.
</metadata>
<defs>
<font id="Arcus" horiz-adv-x="462" >
  <font-face 
    font-family="Arcus"
    font-weight="400"
    font-stretch="normal"
    units-per-em="1000"
    panose-1="2 0 5 3 0 0 0 2 0 4"
    ascent="769"
    descent="-231"
    x-height="538"
    cap-height="692"
    bbox="0 -231 946 947"
    underline-thickness="50"
    underline-position="-50"
    stemh="77"
    stemv="77"
    unicode-range="U+0020-FB00"
  />
    <missing-glyph />
    <glyph glyph-name="ff" unicode="ff" horiz-adv-x="577" 
d="M516 692c-43 0 -77 -35 -77 -77v-77h138v-77h-138v-461h-77v461h-185v-461h-77v461h-100v77h100v77c0 85 69 154 154 154h108v-77h-108c-43 0 -77 -35 -77 -77v-77h185v77c0 85 69 154 154 154h103v-77h-103z" />
    <glyph glyph-name="space" unicode=" " horiz-adv-x="250" 
 />
    <glyph glyph-name="exclam" unicode="!" horiz-adv-x="193" 
d="M155 77v-77h-77v77h77zM155 230h-77v462h77v-462z" />
    <glyph glyph-name="quotedbl" unicode="&#x22;" horiz-adv-x="240" 
d="M96 548h-58v221h58v-221zM202 548h-58v221h58v-221z" />
    <glyph glyph-name="numbersign" unicode="#" horiz-adv-x="518" 
d="M345 0h-77l34 241h-114l-34 -241h-77l34 241h-73v58h81l13 95h-55v57h63l34 241h77l-34 -241h114l34 241h77l-34 -241h72v-57h-80l-13 -95h55v-58h-63zM209 394l-13 -95h114l13 95h-114z" />
    <glyph glyph-name="dollar" unicode="$" 
d="M192 692h77v-81c76 -17 135 -78 135 -150h-77c0 42 -45 77 -97 77c-50 0 -96 -36 -96 -94v-1c0 -52 34 -97 96 -97c103 0 174 -79 174 -174v-2c0 -98 -68 -150 -135 -166v-82h-77v82c-77 16 -134 76 -134 149h76c1 -41 45 -77 97 -77c50 0 94 34 96 94v2
c0 53 -36 97 -97 97c-105 0 -172 79 -172 174c0 98 66 151 134 167v82z" />
    <glyph glyph-name="percent" unicode="%" horiz-adv-x="702" 
d="M166 297c-61 0 -118 50 -118 111v183c0 61 57 111 118 111s118 -50 118 -111v-183c0 -61 -57 -111 -118 -111zM159 0l326 692h58l-327 -692h-57zM166 355c29 0 60 24 60 53v183c0 29 -31 53 -60 53s-60 -24 -60 -53v-183c0 -29 31 -53 60 -53zM536 -10
c-61 0 -118 50 -118 111v183c0 61 57 111 118 111s118 -50 118 -111v-183c0 -61 -57 -111 -118 -111zM536 48c29 0 60 24 60 53v183c0 29 -31 53 -60 53s-60 -24 -60 -53v-183c0 -29 31 -53 60 -53z" />
    <glyph glyph-name="ampersand" unicode="&#x26;" horiz-adv-x="548" 
d="M48 181c0 79 40 141 85 173c-34 31 -65 86 -65 157c0 113 79 191 182 191c106 0 183 -77 183 -193h-77c0 53 -32 116 -105 116s-106 -53 -106 -116c0 -72 54 -125 126 -125h277v-77h-116v-153c0 -43 35 -77 77 -77v-77c-49 0 -93 22 -121 58c-32 -36 -67 -68 -149 -68
c-106 0 -191 75 -191 191zM239 67c69 0 116 39 116 102v138h-108c-71 -2 -122 -54 -122 -126c0 -63 46 -114 114 -114z" />
    <glyph glyph-name="quotesingle" unicode="'" horiz-adv-x="133" 
d="M95 548h-57v221h57v-221z" />
    <glyph glyph-name="parenleft" unicode="(" horiz-adv-x="269" 
d="M58 19v577c0 96 78 173 173 173v-77c-53 0 -96 -43 -96 -96v-577c0 -53 43 -96 96 -96v-77c-95 0 -173 78 -173 173z" />
    <glyph glyph-name="parenright" unicode=")" horiz-adv-x="269" 
d="M211 596v-577c0 -95 -78 -173 -173 -173v77c53 0 96 43 96 96v577c0 53 -43 96 -96 96v77c95 0 173 -77 173 -173z" />
    <glyph glyph-name="asterisk" unicode="*" horiz-adv-x="519" 
d="M43 666l50 29c16 -28 45 -43 75 -43c10 0 22 2 33 6c-40 28 -62 73 -62 119c0 24 6 49 19 72l50 -29c-8 -14 -12 -28 -12 -43c0 -27 12 -53 34 -69c6 74 68 132 144 132v-57c-44 0 -81 -33 -87 -76c20 10 41 14 62 14c50 0 99 -26 125 -72l-50 -29c-16 28 -45 43 -75 43
c-11 0 -22 -2 -33 -6c39 -27 62 -73 62 -119c0 -24 -6 -49 -19 -72l-50 29c8 14 12 29 12 43c0 26 -13 52 -35 69c-6 -74 -67 -132 -143 -132v58c44 0 79 32 86 74c-20 -9 -41 -13 -61 -13c-50 0 -99 26 -125 72z" />
    <glyph glyph-name="plus" unicode="+" horiz-adv-x="577" 
d="M327 115h-77v192h-192v77h192v192h77v-192h192v-77h-192v-192z" />
    <glyph glyph-name="comma" unicode="," horiz-adv-x="220" 
d="M115 0v77h77v-77c0 -85 -70 -154 -154 -154v77c42 0 77 34 77 77z" />
    <glyph glyph-name="hyphen" unicode="-" horiz-adv-x="385" 
d="M327 230h-269v77h269v-77z" />
    <glyph glyph-name="period" unicode="." horiz-adv-x="193" 
d="M155 76v-76h-77v76h77z" />
    <glyph glyph-name="slash" unicode="/" horiz-adv-x="422" 
d="M38 0l269 692h77l-269 -692h-77z" />
    <glyph glyph-name="zero" unicode="0" horiz-adv-x="463" 
d="M232 -10c-95 0 -164 79 -164 164v384c0 85 69 164 164 164s163 -79 163 -164v-384c0 -85 -69 -164 -163 -164zM318 154v384c0 43 -33 87 -86 87c-52 0 -87 -44 -87 -87v-384c0 -43 35 -87 87 -87s86 44 86 87z" />
    <glyph glyph-name="one" unicode="1" horiz-adv-x="300" 
d="M222 0h-77v491c-17 -14 -50 -30 -117 -30v77c61 0 117 35 117 97v57h77v-692z" />
    <glyph glyph-name="two" unicode="2" horiz-adv-x="442" 
d="M68 0v230c0 84 69 154 164 154c52 0 84 35 85 77l1 77c-1 43 -34 87 -86 87s-87 -45 -87 -87h-77c0 86 69 164 164 164s162 -79 162 -164v-77c0 -85 -67 -154 -162 -154c-52 0 -87 -35 -87 -77v-153h249v-77h-326z" />
    <glyph glyph-name="three" unicode="3" horiz-adv-x="423" 
d="M201 307h-86v77h86c53 0 87 36 87 86v68c0 43 -34 87 -86 87c-53 0 -87 -44 -87 -87h-77c0 85 69 164 164 164s163 -79 163 -164v-68c0 -56 -31 -107 -63 -125c32 -18 63 -69 63 -125v-66c0 -85 -68 -164 -163 -164s-164 79 -164 164h77c0 -43 34 -87 87 -87
c52 0 86 44 86 87v66c0 51 -34 85 -87 87z" />
    <glyph glyph-name="four" unicode="4" horiz-adv-x="414" 
d="M346 0h-77v307h-77c-85 0 -154 68 -154 153v232h77v-232c0 -42 35 -76 77 -76h77v308h77v-692z" />
    <glyph glyph-name="five" unicode="5" horiz-adv-x="433" 
d="M221 -10c-95 0 -163 79 -163 164h77c0 -43 33 -87 86 -87c52 0 87 44 87 87v96c0 62 -35 97 -97 97h-134v345h288v-77h-211v-191h57c104 0 174 -69 174 -174v-96c0 -85 -69 -164 -164 -164z" />
    <glyph glyph-name="six" unicode="6" horiz-adv-x="443" 
d="M232 -10c-95 0 -164 79 -164 164v384c0 85 69 164 164 164c94 0 163 -79 163 -164h-77c0 43 -34 87 -86 87s-87 -44 -87 -87v-154h86c95 0 164 -69 164 -164v-66c0 -85 -69 -164 -163 -164zM145 307v-153c0 -43 35 -87 87 -87s86 44 86 87v66c0 52 -34 87 -87 87h-86z
" />
    <glyph glyph-name="seven" unicode="7" horiz-adv-x="405" 
d="M347 0h-77v307h-212v77h212v154c0 43 -34 87 -86 87c-53 0 -87 -44 -87 -87h-77c0 85 69 164 164 164s163 -79 163 -164v-538z" />
    <glyph glyph-name="eight" unicode="8" horiz-adv-x="463" 
d="M232 -11c-95 0 -164 79 -164 164v67c0 48 22 94 59 125c-37 31 -59 78 -59 126v67c0 85 69 164 164 164s163 -79 163 -164v-67c0 -48 -22 -95 -58 -126c36 -31 58 -77 58 -125v-67c0 -85 -69 -164 -163 -164zM233 307h-4c-50 -2 -84 -45 -84 -87v-67c0 -43 35 -87 87 -87
s86 44 86 87v67c0 42 -31 85 -81 87h-4zM318 471v67c0 43 -33 87 -86 87c-52 0 -87 -44 -87 -87v-67c0 -42 34 -85 84 -87h8c50 2 81 45 81 87z" />
    <glyph glyph-name="nine" unicode="9" horiz-adv-x="443" 
d="M211 702c95 0 164 -79 164 -164v-384c0 -85 -70 -164 -165 -164c-94 0 -162 79 -162 164h77c0 -43 33 -87 85 -87s88 44 88 87v154h-86c-95 0 -164 69 -164 164v66c0 85 69 164 163 164zM298 385v153c0 43 -35 87 -87 87s-86 -44 -86 -87v-66c0 -52 34 -87 87 -87h86z
" />
    <glyph glyph-name="semicolon" unicode=";" horiz-adv-x="220" 
d="M191 539v-77h-77v77h77zM115 0v77h77v-77c0 -85 -70 -154 -154 -154v77c42 0 77 34 77 77z" />
    <glyph glyph-name="colon" unicode=":" horiz-adv-x="193" 
d="M155 77v-77h-77v77h77zM155 539v-77h-77v77h77z" />
    <glyph glyph-name="less" unicode="&#x3c;" horiz-adv-x="423" 
d="M365 230v-77l-307 154v77l307 154v-77l-231 -116z" />
    <glyph glyph-name="equal" unicode="=" 
d="M404 384h-346v77h346v-77zM404 230h-346v77h346v-77z" />
    <glyph glyph-name="greater" unicode="&#x3e;" horiz-adv-x="423" 
d="M365 384v-77l-307 -154v77l230 115l-230 116v77z" />
    <glyph glyph-name="question" unicode="?" horiz-adv-x="384" 
d="M211 231h-77v192h28c79 0 107 54 107 96c0 69 -51 96 -93 96h-98v77h98c84 0 170 -62 170 -173c0 -75 -47 -152 -135 -162v-126zM211 77v-77h-77v77h77z" />
    <glyph glyph-name="at" unicode="@" horiz-adv-x="680" 
d="M566 392v-238c0 -41 37 -75 76 -77v-77c-39 0 -86 15 -114 53c-28 -32 -68 -63 -134 -63h-1c-105 0 -174 68 -174 163c2 86 68 155 174 155h96v84c0 81 -65 147 -157 147s-157 -66 -157 -147v-400c0 -81 65 -147 157 -147v-76c-135 0 -234 98 -234 223v400
c0 125 99 223 234 223s234 -98 234 -223zM488 231h-96c-61 0 -97 -35 -97 -78c0 -53 35 -86 97 -86h1c52 0 95 34 95 87v77z" />
    <glyph glyph-name="A" unicode="A" horiz-adv-x="521" 
d="M68 510c0 106 87 192 193 192s192 -86 192 -192v-510h-77v307h-231v-307h-77v510zM376 384v126c0 64 -51 115 -115 115c-63 0 -116 -51 -116 -115v-126h231z" />
    <glyph glyph-name="B" unicode="B" horiz-adv-x="509" 
d="M78 692h171c113 -1 202 -67 202 -192c0 -64 -28 -117 -75 -151c54 -34 85 -89 85 -157c0 -126 -90 -192 -213 -192h-170v692zM249 77c82 0 135 33 135 116c0 72 -55 114 -156 114h-73v-230h94zM374 500c-1 81 -53 115 -125 115h-94v-231h73c93 0 146 43 146 116z" />
    <glyph glyph-name="C" unicode="C" horiz-adv-x="480" 
d="M58 182v328c0 106 86 192 192 192s192 -86 192 -192h-77c0 64 -51 115 -115 115s-115 -51 -115 -115v-328c0 -64 51 -115 115 -115s115 51 115 115h77c0 -106 -86 -192 -192 -192s-192 86 -192 192z" />
    <glyph glyph-name="D" unicode="D" horiz-adv-x="520" 
d="M78 0v692h172c126 0 212 -86 212 -202v-288c0 -116 -86 -202 -212 -202h-172zM250 615h-94v-538h94c84 0 135 51 135 125v288c0 74 -51 125 -135 125z" />
    <glyph glyph-name="E" unicode="E" 
d="M404 0h-143c-126 0 -203 86 -203 191c0 65 33 118 80 154c-47 36 -80 90 -80 155c0 105 77 192 193 192h153v-77h-153c-73 0 -116 -52 -116 -115c0 -60 41 -113 126 -116h143v-77h-143c-83 0 -126 -55 -126 -116c0 -63 43 -114 126 -114h143v-77z" />
    <glyph glyph-name="F" unicode="F" horiz-adv-x="442" 
d="M261 691h153v-77h-153c-63 0 -116 -48 -116 -111v-119h269v-77h-269v-307h-77v503c0 105 87 188 193 188z" />
    <glyph glyph-name="G" unicode="G" horiz-adv-x="500" 
d="M442 182c0 -106 -86 -192 -192 -192s-192 86 -192 192v328c0 106 86 192 192 192s192 -86 192 -192h-77c0 64 -51 115 -115 115s-115 -51 -115 -115v-328c0 -64 51 -115 115 -115s115 51 115 115v125h-115v77h192v-202z" />
    <glyph glyph-name="H" unicode="H" horiz-adv-x="559" 
d="M481 0h-77v307h-249v-307h-77v692h77v-308h249v308h77v-692z" />
    <glyph glyph-name="I" unicode="I" horiz-adv-x="233" 
d="M155 0h-77v692h77v-692z" />
    <glyph glyph-name="J" unicode="J" horiz-adv-x="222" 
d="M0 -154v77c42 0 78 34 78 77v692h76v-692c-1 -85 -69 -154 -154 -154z" />
    <glyph glyph-name="K" unicode="K" horiz-adv-x="528" 
d="M189 307h-34v-307h-77v692h77v-308h34c127 0 196 69 196 154v154h77v-154c0 -76 -43 -152 -115 -195c80 -52 123 -151 123 -267v-76h-77v76c0 134 -59 231 -204 231z" />
    <glyph glyph-name="L" unicode="L" horiz-adv-x="402" 
d="M394 0h-173c-96 0 -153 58 -153 153v539h77v-539c0 -53 23 -76 76 -76h173v-77z" />
    <glyph glyph-name="M" unicode="M" horiz-adv-x="829" 
d="M568 625c-61 0 -112 -48 -115 -115v-510h-77v510c0 64 -52 115 -115 115c-64 0 -116 -51 -116 -115v-510h-77v510c0 106 86 192 193 192c63 0 119 -30 154 -76c35 46 91 76 153 76c107 0 193 -86 193 -192v-510h-77v510c0 64 -52 115 -116 115z" />
    <glyph glyph-name="N" unicode="N" horiz-adv-x="520" 
d="M260 625c-64 0 -115 -51 -115 -115v-510h-77v510c0 106 86 192 192 192s192 -86 192 -192v-510h-77v510c0 64 -51 115 -115 115z" />
    <glyph glyph-name="O" unicode="O" horiz-adv-x="500" 
d="M250 -10c-106 0 -192 86 -192 192v328c0 106 86 192 192 192s192 -86 192 -192v-328c0 -106 -86 -192 -192 -192zM250 625c-64 0 -115 -51 -115 -115v-328c0 -64 51 -115 115 -115s115 51 115 115v328c0 64 -51 115 -115 115z" />
    <glyph glyph-name="P" unicode="P" horiz-adv-x="479" 
d="M155 0h-77v692h191c113 0 192 -68 192 -192c0 -115 -88 -193 -223 -193h-83v-307zM384 500c-1 81 -43 115 -115 115h-114v-231h83c93 0 146 43 146 116z" />
    <glyph glyph-name="Q" unicode="Q" horiz-adv-x="533" 
d="M250 -10c-106 0 -192 86 -192 192v328c0 106 86 192 192 192s192 -86 192 -192v-347c0 -52 35 -86 77 -86v-77c-49 0 -92 21 -122 59c-33 -41 -87 -69 -147 -69zM250 625c-64 0 -115 -51 -115 -115v-328c0 -64 51 -115 115 -115c58 0 114 30 114 95c0 39 -46 69 -96 69
h-18v76h18c38 0 78 -8 101 -31v234c0 64 -55 115 -119 115z" />
    <glyph glyph-name="R" unicode="R" horiz-adv-x="527" 
d="M155 0h-77v692h191c114 0 192 -69 192 -193c0 -75 -40 -134 -103 -166c73 -54 111 -146 111 -257v-76h-77v76c0 130 -57 226 -194 231h-43v-307zM384 499c0 81 -43 116 -115 116h-114v-231h83c92 0 145 42 146 115z" />
    <glyph glyph-name="S" unicode="S" horiz-adv-x="490" 
d="M443 509h-77c0 63 -43 116 -116 116c-71 0 -115 -49 -115 -119c0 -64 44 -122 117 -122c122 0 200 -91 200 -196s-77 -198 -202 -198c-115 0 -202 87 -202 193h77c0 -63 51 -116 124 -116c81 0 126 57 126 119c0 63 -42 121 -123 121c-115 0 -194 93 -194 198
c0 115 78 197 193 197c114 0 192 -89 192 -193z" />
    <glyph glyph-name="T" unicode="T" horiz-adv-x="422" 
d="M250 0h-77v615h-155v77h386v-77h-154v-615z" />
    <glyph glyph-name="U" unicode="U" horiz-adv-x="543" 
d="M260 67c64 0 115 51 115 115v510h77v-538c0 -43 35 -77 77 -77v-77c-49 0 -92 21 -122 59c-32 -42 -87 -69 -147 -69c-106 0 -192 86 -192 192v510h77v-510c0 -64 51 -115 115 -115z" />
    <glyph glyph-name="V" unicode="V" horiz-adv-x="520" 
d="M260 67c64 0 115 51 115 115v510h77v-510c0 -106 -86 -192 -192 -192s-192 86 -192 192v510h77v-510c0 -64 51 -115 115 -115z" />
    <glyph glyph-name="W" unicode="W" horiz-adv-x="829" 
d="M261 67c61 0 112 48 115 115v510h77v-510c0 -64 52 -115 115 -115c64 0 116 51 116 115v510h77v-510c0 -106 -86 -192 -193 -192c-63 0 -119 30 -154 76c-35 -46 -91 -76 -153 -76c-107 0 -193 86 -193 192v510h77v-510c0 -64 52 -115 116 -115z" />
    <glyph glyph-name="X" unicode="X" horiz-adv-x="520" 
d="M375 500v192h77v-192c0 -63 -30 -119 -77 -155c46 -35 77 -90 77 -153v-192h-77v192c0 64 -51 115 -115 115s-115 -51 -115 -115v-192h-77v192c0 63 30 118 77 153c-47 36 -77 92 -77 155v192h77v-192c0 -64 48 -116 117 -116c61 2 113 53 113 116z" />
    <glyph glyph-name="Y" unicode="Y" horiz-adv-x="460" 
d="M230 384c64 0 115 51 115 115v193h77v-193c0 -93 -67 -171 -154 -188v-311h-77v311c-87 18 -153 95 -153 188v193h77v-193c0 -64 51 -115 115 -115z" />
    <glyph glyph-name="Z" unicode="Z" horiz-adv-x="471" 
d="M56 692h356v-197c0 -95 -62 -188 -178 -188c-63 0 -109 -48 -109 -111v-119h298v-77h-375v196c0 105 80 188 186 188c73 0 101 58 101 111v120h-279v77z" />
    <glyph glyph-name="bracketleft" unicode="[" horiz-adv-x="230" 
d="M212 -154h-154v923h154v-77h-77v-769h77v-77z" />
    <glyph glyph-name="backslash" unicode="\" horiz-adv-x="422" 
d="M115 692l269 -692h-77l-269 692h77z" />
    <glyph glyph-name="bracketright" unicode="]" horiz-adv-x="230" 
d="M172 -154h-154v77h77v769h-77v77h154v-923z" />
    <glyph glyph-name="asciicircum" unicode="^" horiz-adv-x="501" 
d="M135 461h-77l153 308h78l154 -308h-77l-116 231z" />
    <glyph glyph-name="underscore" unicode="_" 
d="M404 -154h-346v77h346v-77z" />
    <glyph glyph-name="grave" unicode="`" 
d="M125 769h58c0 -48 39 -86 86 -86v-58c-79 0 -144 64 -144 144z" />
    <glyph glyph-name="a" unicode="a" horiz-adv-x="465" 
d="M337 53c-28 -32 -68 -63 -134 -63h-1c-105 0 -174 68 -174 163c2 86 68 154 174 154h96v47c0 73 -36 107 -107 107h-96v77h96c115 0 184 -69 184 -184v-200c0 -41 37 -75 76 -77v-77c-39 0 -86 15 -114 53zM298 230h-96c-61 0 -97 -34 -97 -77c0 -53 35 -86 97 -86h1
c52 0 95 34 95 87v76z" />
    <glyph glyph-name="b" unicode="b" horiz-adv-x="496" 
d="M438 385v-231c0 -95 -76 -164 -171 -164c-55 0 -105 23 -138 61c-28 -32 -70 -51 -115 -51v77c42 0 78 34 78 77v615h77v-257c28 25 63 36 97 36c94 0 172 -68 172 -163zM267 67c52 0 94 35 94 87v231c0 51 -43 87 -95 87s-97 -36 -97 -87v-231c0 -52 46 -87 98 -87z" />
    <glyph glyph-name="c" unicode="c" horiz-adv-x="442" 
d="M58 154v231c0 95 79 163 174 163c94 0 172 -68 172 -163h-77c0 51 -43 87 -95 87s-97 -36 -97 -87v-231c0 -52 46 -87 98 -87s94 35 94 87h77c0 -95 -76 -164 -171 -164s-175 69 -175 164z" />
    <glyph glyph-name="d" unicode="d" horiz-adv-x="496" 
d="M58 154v231c0 95 78 163 172 163c36 0 71 -11 97 -37v258h77v-615c0 -43 36 -77 78 -77v-77c-45 0 -87 19 -115 51c-33 -38 -83 -61 -138 -61c-95 0 -171 69 -171 164zM229 67c52 0 98 35 98 87v231c0 51 -45 87 -97 87s-95 -36 -95 -87v-231c0 -52 42 -87 94 -87z" />
    <glyph glyph-name="e" unicode="e" horiz-adv-x="452" 
d="M366 77v-77h-106c-115 0 -202 78 -202 193v181c0 95 70 174 175 174s171 -79 171 -174v-144h-269v-37c0 -72 52 -116 125 -116h106zM233 471c-63 0 -98 -45 -98 -97v-67h192v67c0 52 -31 97 -94 97z" />
    <glyph glyph-name="f" unicode="f" horiz-adv-x="315" 
d="M258 692c-43 0 -77 -35 -77 -77v-77h134v-76h-134v-462h-77v462h-104v76h104v77c0 85 69 154 154 154h27v-77h-27z" />
    <glyph glyph-name="g" unicode="g" horiz-adv-x="470" 
d="M354 486c29 32 70 52 116 52v-77c-44 0 -82 -35 -82 -77v-66c0 -95 -74 -164 -169 -164c-46 0 -63 -20 -63 -41s23 -36 65 -36c132 0 205 -72 205 -154c0 -85 -80 -154 -205 -154c-105 0 -201 58 -201 154c0 61 37 102 91 127c-18 19 -24 40 -24 61c0 29 18 59 40 70
c-41 23 -77 76 -77 137v66c0 105 85 164 170 164c56 0 106 -30 134 -62zM219 231c53 0 97 34 97 87v66c0 63 -53 87 -96 87s-96 -24 -96 -87v-66c0 -52 41 -87 95 -87zM219 0c-71 0 -126 -34 -126 -77c0 -53 67 -79 129 -79c81 0 132 37 132 79s-43 77 -135 77z" />
    <glyph glyph-name="h" unicode="h" horiz-adv-x="484" 
d="M78 0v769h77v-258c28 27 61 37 97 37c94 0 172 -68 172 -163v-385h-77v385c0 51 -43 87 -95 87s-97 -36 -97 -87v-385h-77z" />
    <glyph glyph-name="i" unicode="i" horiz-adv-x="233" 
d="M155 692v-77h-77v77h77zM155 0h-77v538h77v-538z" />
    <glyph glyph-name="j" unicode="j" horiz-adv-x="222" 
d="M77 -78v616h77v-616c0 -85 -69 -153 -154 -153v76c42 1 77 35 77 77zM154 692v-77h-77v77h77z" />
    <glyph glyph-name="k" unicode="k" horiz-adv-x="473" 
d="M194 230v1c-6 -1 -13 -1 -39 -1v-230h-77v769h77v-462h19c85 0 154 70 154 154v77h77v-77c0 -77 -38 -144 -94 -186c68 -40 114 -114 114 -199v-76h-77v76c0 84 -69 154 -154 154z" />
    <glyph glyph-name="l" unicode="l" horiz-adv-x="226" 
d="M135 769v-615c0 -42 35 -77 77 -77v-77c-85 0 -154 69 -154 154v615h77z" />
    <glyph glyph-name="m" unicode="m" horiz-adv-x="767" 
d="M128 488c32 38 82 60 137 60c54 0 102 -22 134 -59c32 36 82 59 136 59c94 0 172 -68 172 -163v-385h-77v385c0 51 -43 87 -95 87c-51 0 -96 -34 -98 -83v-389h-77v385c0 51 -43 87 -95 87s-97 -36 -97 -87v-385h-77v385c0 42 -34 76 -77 77v76c45 0 85 -19 114 -50z" />
    <glyph glyph-name="n" unicode="n" horiz-adv-x="497" 
d="M128 488c32 38 82 60 137 60c94 0 172 -68 172 -163v-385h-77v385c0 51 -43 87 -95 87s-97 -36 -97 -87v-385h-77v385c0 42 -34 76 -77 77v76c45 0 85 -19 114 -50z" />
    <glyph glyph-name="o" unicode="o" 
d="M404 385v-231c0 -95 -76 -164 -171 -164s-175 69 -175 164v231c0 95 79 163 174 163c94 0 172 -68 172 -163zM233 67c52 0 94 35 94 87v231c0 51 -43 87 -95 87s-97 -36 -97 -87v-231c0 -52 46 -87 98 -87z" />
    <glyph glyph-name="p" unicode="p" horiz-adv-x="496" 
d="M438 384v-231c0 -95 -78 -163 -172 -163c-36 0 -69 10 -97 37v-258h-77v615c0 43 -36 77 -78 77v77c45 0 87 -19 115 -51c33 38 83 61 138 61c95 0 171 -69 171 -164zM267 471c-52 0 -98 -35 -98 -87v-231c0 -51 45 -87 97 -87s95 36 95 87v231c0 52 -42 87 -94 87z" />
    <glyph glyph-name="q" unicode="q" horiz-adv-x="496" 
d="M58 153v231c0 95 76 164 171 164c55 0 105 -23 138 -61c28 32 70 51 115 51v-77c-42 0 -78 -34 -78 -77v-615h-77v258c-28 -27 -61 -37 -97 -37c-94 0 -172 68 -172 163zM229 471c-52 0 -94 -35 -94 -87v-231c0 -51 43 -87 95 -87s97 36 97 87v231c0 52 -46 87 -98 87z
" />
    <glyph glyph-name="r" unicode="r" horiz-adv-x="322" 
d="M276 538h46v-76h-46c-72 0 -107 -36 -107 -107v-355h-77v385c0 42 -35 76 -78 77v76c46 0 89 -20 117 -52c28 32 69 52 145 52z" />
    <glyph glyph-name="s" unicode="s" horiz-adv-x="430" 
d="M211 472c-63 -1 -93 -45 -93 -87c0 -43 30 -77 93 -77c115 0 181 -59 181 -154c0 -85 -68 -164 -173 -164s-181 79 -181 164h77c0 -43 41 -87 104 -87s96 44 96 87c0 42 -31 77 -104 77c-115 0 -170 59 -170 154c0 85 65 163 170 163c101 0 168 -78 168 -163h-77
c0 41 -32 87 -91 87z" />
    <glyph glyph-name="t" unicode="t" horiz-adv-x="316" 
d="M249 0c-85 0 -154 69 -154 154v308h-95v76h95v154h77v-154h144v-76h-144v-308c0 -43 34 -77 77 -77h36v-77h-36z" />
    <glyph glyph-name="u" unicode="u" horiz-adv-x="497" 
d="M406 538v-384c0 -43 34 -77 77 -77v-77c-46 0 -87 20 -115 52c-29 -32 -69 -62 -135 -62c-105 0 -173 69 -173 174v374h77v-374c0 -63 43 -97 96 -97s96 44 96 97v374h77z" />
    <glyph glyph-name="v" unicode="v" horiz-adv-x="466" 
d="M233 66c53 1 96 44 96 97v375h77v-375c0 -96 -77 -173 -173 -173s-173 77 -173 173v375h77v-375c0 -53 43 -96 96 -97z" />
    <glyph glyph-name="w" unicode="w" horiz-adv-x="736" 
d="M233 66c53 1 96 44 96 97v375h77v-375c0 -52 43 -97 96 -97c54 0 97 45 97 97v375h77v-375c0 -96 -78 -173 -174 -173c-54 0 -103 25 -135 64c-31 -39 -80 -64 -134 -64c-95 0 -173 77 -173 173v375h77v-375c0 -53 43 -96 96 -97z" />
    <glyph glyph-name="x" unicode="x" 
d="M327 403v135h77v-135c0 -54 -26 -103 -65 -135c39 -31 65 -80 65 -134v-134h-77v134c0 51 -41 94 -96 96c-55 -2 -96 -45 -96 -96v-134h-77v134c0 54 25 103 64 134c-39 32 -64 81 -64 135v135h77v-135c0 -53 43 -96 96 -96c55 0 96 45 96 96z" />
    <glyph glyph-name="y" unicode="y" horiz-adv-x="468" 
d="M408 -47c0 -115 -80 -184 -175 -184h-96v77h96c52 0 97 34 97 107v74c-28 -27 -61 -37 -97 -37c-94 0 -172 68 -173 164v384h78v-385c0 -51 43 -87 95 -87s98 36 98 87v385h77v-585z" />
    <glyph glyph-name="z" unicode="z" horiz-adv-x="446" 
d="M396 77v-77h-336v124c0 105 59 183 164 183c63 0 85 46 85 107v47h-249v77h326v-124c0 -105 -57 -183 -162 -183c-63 0 -87 -46 -87 -107v-47h259z" />
    <glyph glyph-name="braceleft" unicode="{" horiz-adv-x="230" 
d="M77 0v192c0 42 -34 75 -74 77h-3v77c42 0 77 35 77 77v192c0 85 68 154 153 154v-77c-42 0 -76 -34 -76 -77v-192c0 -46 -21 -88 -53 -116c32 -28 53 -69 53 -115v-192c0 -42 34 -77 76 -77v-77c-85 0 -153 69 -153 154z" />
    <glyph glyph-name="bar" unicode="|" horiz-adv-x="233" 
d="M155 -154h-77v923h77v-923z" />
    <glyph glyph-name="braceright" unicode="}" horiz-adv-x="230" 
d="M77 423v192c-1 43 -35 77 -77 77v77c85 0 153 -69 153 -154v-192c0 -41 33 -76 74 -77h3v-77c-42 0 -77 -34 -77 -77v-192c0 -85 -68 -154 -153 -154v77c42 0 76 35 76 77v192c0 46 20 87 52 115c-32 28 -51 70 -51 116z" />
    <glyph glyph-name="asciitilde" unicode="~" horiz-adv-x="650" 
d="M454 242c-19 0 -38 3 -59 11l-166 61c-13 5 -24 5 -32 6c-44 0 -62 -45 -67 -52l-72 26c1 3 38 103 139 103c18 0 38 -4 58 -11l166 -60c14 -5 24 -7 33 -7c42 0 63 45 66 52l72 -26c-1 -2 -37 -103 -138 -103z" />
    <glyph glyph-name="acute" unicode="&#xb4;" horiz-adv-x="461" 
d="M173 625v58c48 0 86 38 87 86h57c0 -79 -64 -144 -144 -144z" />
    <glyph glyph-name="cedilla" unicode="&#xb8;" horiz-adv-x="461" 
d="M202 -231h-29v58h29c26 0 48 21 48 48c0 26 -20 46 -48 48v116h58v-75c28 -19 48 -52 48 -89c0 -58 -48 -106 -106 -106z" />
    <glyph glyph-name="circumflex" unicode="&#x2c6;" horiz-adv-x="461" 
d="M115 625v58c48 0 86 38 87 86h57c2 -50 40 -86 87 -86v-58c-48 0 -90 22 -116 57c-26 -35 -68 -57 -115 -57z" />
    <glyph glyph-name="dieresis" unicode="&#xa8;" 
d="M346 692v-77h-77v77h77zM192 692v-77h-77v77h77z" />
    <glyph glyph-name="macron" unicode="&#xaf;" 
d="M346 625h-230v58h230v-58z" />
    <glyph glyph-name="tilde" unicode="&#x2dc;" horiz-adv-x="461" 
d="M173 721c53 0 72 -45 109 -45c26 0 48 22 48 48h57c0 -58 -47 -106 -105 -106c-52 0 -73 45 -109 45c-27 0 -48 -21 -48 -48h-58c0 59 47 106 106 106z" />
    <glyph glyph-name="Aacute" unicode="&#xc1;" horiz-adv-x="521" 
d="M68 510c0 106 87 192 193 192s192 -86 192 -192v-510h-77v307h-231v-307h-77v510zM376 384v126c0 64 -51 115 -115 115c-63 0 -116 -51 -116 -115v-126h231zM218 779v58c48 0 86 38 87 86h57c0 -79 -64 -144 -144 -144z" />
    <glyph glyph-name="Acircumflex" unicode="&#xc2;" horiz-adv-x="521" 
d="M68 510c0 106 87 192 193 192s192 -86 192 -192v-510h-77v307h-231v-307h-77v510zM376 384v126c0 64 -51 115 -115 115c-63 0 -116 -51 -116 -115v-126h231zM145 779v58c48 0 86 38 87 86h57c2 -50 40 -86 87 -86v-58c-48 0 -90 22 -116 57c-26 -35 -68 -57 -115 -57z
" />
    <glyph glyph-name="Agrave" unicode="&#xc0;" horiz-adv-x="521" 
d="M68 510c0 106 87 192 193 192s192 -86 192 -192v-510h-77v307h-231v-307h-77v510zM376 384v126c0 64 -51 115 -115 115c-63 0 -116 -51 -116 -115v-126h231zM148 923h58c0 -48 39 -86 86 -86v-58c-79 0 -144 64 -144 144z" />
    <glyph glyph-name="Adieresis" unicode="&#xc4;" horiz-adv-x="521" 
d="M68 510c0 106 87 192 193 192s192 -86 192 -192v-510h-77v307h-231v-307h-77v510zM376 384v126c0 64 -51 115 -115 115c-63 0 -116 -51 -116 -115v-126h231zM376 846v-77h-77v77h77zM222 846v-77h-77v77h77z" />
    <glyph glyph-name="Aring" unicode="&#xc5;" horiz-adv-x="521" 
d="M68 510c0 106 87 192 193 192s192 -86 192 -192v-510h-77v307h-231v-307h-77v510zM376 384v126c0 64 -51 115 -115 115c-63 0 -116 -51 -116 -115v-126h231zM159 846c0 56 46 101 101 101c56 0 101 -45 101 -101s-45 -101 -101 -101c-55 0 -101 45 -101 101zM208 846
c0 -29 23 -53 52 -53c30 0 53 24 53 53s-23 53 -53 53c-29 0 -52 -24 -52 -53z" />
    <glyph glyph-name="Atilde" unicode="&#xc3;" horiz-adv-x="521" 
d="M68 510c0 106 87 192 193 192s192 -86 192 -192v-510h-77v307h-231v-307h-77v510zM376 384v126c0 64 -51 115 -115 115c-63 0 -116 -51 -116 -115v-126h231zM206 875c53 0 72 -45 109 -45c26 0 48 22 48 48h57c0 -58 -47 -106 -105 -106c-52 0 -73 45 -109 45
c-27 0 -48 -21 -48 -48h-58c0 59 47 106 106 106z" />
    <glyph glyph-name="AE" unicode="&#xc6;" horiz-adv-x="780" 
d="M722 0h-346v307h-231v-307h-77v510c0 106 87 192 193 192c65 0 122 -32 157 -82c35 44 90 71 151 71h153v-77h-153c-63 0 -116 -48 -116 -111v-119h269v-77h-269v-230h269v-77zM376 384v126c0 64 -51 115 -115 115c-63 0 -116 -51 -116 -115v-126h231z" />
    <glyph glyph-name="Ccedilla" unicode="&#xc7;" horiz-adv-x="480" 
d="M58 182v328c0 106 86 192 192 192s192 -86 192 -192h-77c0 64 -51 115 -115 115s-115 -51 -115 -115v-328c0 -64 51 -115 115 -115s115 51 115 115h77c0 -98 -73 -178 -167 -190v-28c28 -19 48 -52 48 -89c0 -58 -48 -106 -106 -106h-29v58h29c26 0 48 21 48 48
c0 26 -20 46 -48 48v70c-90 15 -159 94 -159 189z" />
    <glyph glyph-name="Eacute" unicode="&#xc9;" 
d="M404 0h-143c-126 0 -203 86 -203 191c0 65 33 118 80 154c-47 36 -80 90 -80 155c0 105 77 192 193 192h153v-77h-153c-73 0 -116 -52 -116 -115c0 -60 41 -113 126 -116h143v-77h-143c-83 0 -126 -55 -126 -116c0 -63 43 -114 126 -114h143v-77zM198 779v58
c48 0 86 38 87 86h57c0 -79 -64 -144 -144 -144z" />
    <glyph glyph-name="Ecircumflex" unicode="&#xca;" 
d="M404 0h-143c-126 0 -203 86 -203 191c0 65 33 118 80 154c-47 36 -80 90 -80 155c0 105 77 192 193 192h153v-77h-153c-73 0 -116 -52 -116 -115c0 -60 41 -113 126 -116h143v-77h-143c-83 0 -126 -55 -126 -116c0 -63 43 -114 126 -114h143v-77zM134 779v58
c48 0 86 38 87 86h57c2 -50 40 -86 87 -86v-58c-48 0 -90 22 -116 57c-26 -35 -68 -57 -115 -57z" />
    <glyph glyph-name="Edieresis" unicode="&#xcb;" 
d="M404 0h-143c-126 0 -203 86 -203 191c0 65 33 118 80 154c-47 36 -80 90 -80 155c0 105 77 192 193 192h153v-77h-153c-73 0 -116 -52 -116 -115c0 -60 41 -113 126 -116h143v-77h-143c-83 0 -126 -55 -126 -116c0 -63 43 -114 126 -114h143v-77zM365 846v-77h-77v77h77z
M211 846v-77h-77v77h77z" />
    <glyph glyph-name="Egrave" unicode="&#xc8;" 
d="M404 0h-143c-126 0 -203 86 -203 191c0 65 33 118 80 154c-47 36 -80 90 -80 155c0 105 77 192 193 192h153v-77h-153c-73 0 -116 -52 -116 -115c0 -60 41 -113 126 -116h143v-77h-143c-83 0 -126 -55 -126 -116c0 -63 43 -114 126 -114h143v-77zM148 923h58
c0 -48 39 -86 86 -86v-58c-79 0 -144 64 -144 144z" />
    <glyph glyph-name="Iacute" unicode="&#xcd;" horiz-adv-x="233" 
d="M155 0h-77v692h77v-692zM78 779v58c48 0 86 38 87 86h57c0 -79 -64 -144 -144 -144z" />
    <glyph glyph-name="Icircumflex" unicode="&#xce;" horiz-adv-x="233" 
d="M155 0h-77v692h77v-692zM1 779v58c48 0 86 38 87 86h57c2 -50 40 -86 87 -86v-58c-48 0 -90 22 -116 57c-26 -35 -68 -57 -115 -57z" />
    <glyph glyph-name="Idieresis" unicode="&#xcf;" horiz-adv-x="233" 
d="M155 0h-77v692h77v-692zM232 846v-77h-77v77h77zM78 846v-77h-77v77h77z" />
    <glyph glyph-name="Igrave" unicode="&#xcc;" horiz-adv-x="233" 
d="M155 0h-77v692h77v-692zM11 923h58c0 -48 39 -86 86 -86v-58c-79 0 -144 64 -144 144z" />
    <glyph glyph-name="Ntilde" unicode="&#xd1;" horiz-adv-x="520" 
d="M260 625c-64 0 -115 -51 -115 -115v-510h-77v510c0 106 86 192 192 192s192 -86 192 -192v-510h-77v510c0 64 -51 115 -115 115zM206 875c53 0 72 -45 109 -45c26 0 48 22 48 48h57c0 -58 -47 -106 -105 -106c-52 0 -73 45 -109 45c-27 0 -48 -21 -48 -48h-58
c0 59 47 106 106 106z" />
    <glyph glyph-name="Oacute" unicode="&#xd3;" horiz-adv-x="500" 
d="M250 -10c-106 0 -192 86 -192 192v328c0 106 86 192 192 192s192 -86 192 -192v-328c0 -106 -86 -192 -192 -192zM250 625c-64 0 -115 -51 -115 -115v-328c0 -64 51 -115 115 -115s115 51 115 115v328c0 64 -51 115 -115 115zM207 779v58c48 0 86 38 87 86h57
c0 -79 -64 -144 -144 -144z" />
    <glyph glyph-name="Ocircumflex" unicode="&#xd4;" horiz-adv-x="500" 
d="M250 -10c-106 0 -192 86 -192 192v328c0 106 86 192 192 192s192 -86 192 -192v-328c0 -106 -86 -192 -192 -192zM250 625c-64 0 -115 -51 -115 -115v-328c0 -64 51 -115 115 -115s115 51 115 115v328c0 64 -51 115 -115 115zM134 779v58c48 0 86 38 87 86h57
c2 -50 40 -86 87 -86v-58c-48 0 -90 22 -116 57c-26 -35 -68 -57 -115 -57z" />
    <glyph glyph-name="Odieresis" unicode="&#xd6;" horiz-adv-x="500" 
d="M250 -10c-106 0 -192 86 -192 192v328c0 106 86 192 192 192s192 -86 192 -192v-328c0 -106 -86 -192 -192 -192zM250 625c-64 0 -115 -51 -115 -115v-328c0 -64 51 -115 115 -115s115 51 115 115v328c0 64 -51 115 -115 115zM365 846v-77h-77v77h77zM211 846v-77h-77v77
h77z" />
    <glyph glyph-name="Ograve" unicode="&#xd2;" horiz-adv-x="500" 
d="M250 -10c-106 0 -192 86 -192 192v328c0 106 86 192 192 192s192 -86 192 -192v-328c0 -106 -86 -192 -192 -192zM250 625c-64 0 -115 -51 -115 -115v-328c0 -64 51 -115 115 -115s115 51 115 115v328c0 64 -51 115 -115 115zM148 923h58c0 -48 39 -86 86 -86v-58
c-79 0 -144 64 -144 144z" />
    <glyph glyph-name="Oslash" unicode="&#xd8;" horiz-adv-x="500" 
d="M250 -10c-52 0 -98 20 -133 53l-22 -43h-57l46 86c-17 28 -26 61 -26 96v328c0 106 86 192 192 192c51 0 98 -20 132 -53l23 42h57l-46 -86c16 -28 26 -60 26 -95v-328c0 -106 -86 -192 -192 -192zM250 625c-64 0 -115 -51 -115 -115v-328l209 394c-21 30 -55 49 -94 49z
M250 67c64 0 115 51 115 115v326l-209 -393c20 -29 55 -48 94 -48z" />
    <glyph glyph-name="Oslashacute" unicode="&#x1fe;" horiz-adv-x="500" 
d="M250 -10c-52 0 -98 20 -133 53l-22 -43h-57l46 86c-17 28 -26 61 -26 96v328c0 106 86 192 192 192c51 0 98 -20 132 -53l23 42h57l-46 -86c16 -28 26 -60 26 -95v-328c0 -106 -86 -192 -192 -192zM250 625c-64 0 -115 -51 -115 -115v-328l209 394c-21 30 -55 49 -94 49z
M250 67c64 0 115 51 115 115v326l-209 -393c20 -29 55 -48 94 -48zM198 779v58c48 0 86 38 87 86h57c0 -79 -64 -144 -144 -144z" />
    <glyph glyph-name="Otilde" unicode="&#xd5;" horiz-adv-x="500" 
d="M250 -10c-106 0 -192 86 -192 192v328c0 106 86 192 192 192s192 -86 192 -192v-328c0 -106 -86 -192 -192 -192zM250 625c-64 0 -115 -51 -115 -115v-328c0 -64 51 -115 115 -115s115 51 115 115v328c0 64 -51 115 -115 115zM196 875c53 0 72 -45 109 -45
c26 0 48 22 48 48h57c0 -58 -47 -106 -105 -106c-52 0 -73 45 -109 45c-27 0 -48 -21 -48 -48h-58c0 59 47 106 106 106z" />
    <glyph glyph-name="OE" unicode="&#x152;" horiz-adv-x="769" 
d="M711 0h-143c-72 0 -127 27 -162 70c-35 -48 -92 -80 -156 -80c-106 0 -192 86 -192 192v328c0 106 86 192 192 192c64 0 121 -32 156 -81c34 43 87 70 152 70h153v-77h-153c-73 0 -116 -51 -116 -114v-116h269v-77h-269v-121c2 -61 45 -109 126 -109h143v-77zM250 625
c-64 0 -115 -51 -115 -115v-328c0 -64 51 -115 115 -115s115 51 115 115v328c0 64 -51 115 -115 115z" />
    <glyph glyph-name="Scaron" unicode="&#x160;" horiz-adv-x="490" 
d="M443 509h-77c0 63 -43 116 -116 116c-71 0 -115 -49 -115 -119c0 -64 44 -122 117 -122c122 0 200 -91 200 -196s-77 -198 -202 -198c-115 0 -202 87 -202 193h77c0 -63 51 -116 124 -116c81 0 126 57 126 119c0 63 -42 121 -123 121c-115 0 -194 93 -194 198
c0 115 78 197 193 197c114 0 192 -89 192 -193zM280 769h-58c0 48 -39 87 -86 87v58c47 0 88 -23 115 -58c26 35 68 58 115 58v-58c-46 0 -84 -37 -86 -87z" />
    <glyph glyph-name="Uacute" unicode="&#xda;" horiz-adv-x="543" 
d="M260 67c64 0 115 51 115 115v510h77v-538c0 -43 35 -77 77 -77v-77c-49 0 -92 21 -122 59c-32 -42 -87 -69 -147 -69c-106 0 -192 86 -192 192v510h77v-510c0 -64 51 -115 115 -115zM237 779v58c48 0 86 38 87 86h57c0 -79 -64 -144 -144 -144z" />
    <glyph glyph-name="Ucircumflex" unicode="&#xdb;" horiz-adv-x="543" 
d="M260 67c64 0 115 51 115 115v510h77v-538c0 -43 35 -77 77 -77v-77c-49 0 -92 21 -122 59c-32 -42 -87 -69 -147 -69c-106 0 -192 86 -192 192v510h77v-510c0 -64 51 -115 115 -115zM144 779v58c48 0 86 38 87 86h57c2 -50 40 -86 87 -86v-58c-48 0 -90 22 -116 57
c-26 -35 -68 -57 -115 -57z" />
    <glyph glyph-name="Udieresis" unicode="&#xdc;" horiz-adv-x="543" 
d="M260 67c64 0 115 51 115 115v510h77v-538c0 -43 35 -77 77 -77v-77c-49 0 -92 21 -122 59c-32 -42 -87 -69 -147 -69c-106 0 -192 86 -192 192v510h77v-510c0 -64 51 -115 115 -115zM375 846v-77h-77v77h77zM221 846v-77h-77v77h77z" />
    <glyph glyph-name="Ugrave" unicode="&#xd9;" horiz-adv-x="543" 
d="M260 67c64 0 115 51 115 115v510h77v-538c0 -43 35 -77 77 -77v-77c-49 0 -92 21 -122 59c-32 -42 -87 -69 -147 -69c-106 0 -192 86 -192 192v510h77v-510c0 -64 51 -115 115 -115zM157 923h58c0 -48 39 -86 86 -86v-58c-79 0 -144 64 -144 144z" />
    <glyph glyph-name="Yacute" unicode="&#xdd;" horiz-adv-x="460" 
d="M230 384c64 0 115 51 115 115v193h77v-193c0 -93 -67 -171 -154 -188v-311h-77v311c-87 18 -153 95 -153 188v193h77v-193c0 -64 51 -115 115 -115zM188 779v58c48 0 86 38 87 86h57c0 -79 -64 -144 -144 -144z" />
    <glyph glyph-name="Ydieresis" unicode="&#x178;" horiz-adv-x="460" 
d="M230 384c64 0 115 51 115 115v193h77v-193c0 -93 -67 -171 -154 -188v-311h-77v311c-87 18 -153 95 -153 188v193h77v-193c0 -64 51 -115 115 -115zM345 846v-77h-77v77h77zM191 846v-77h-77v77h77z" />
    <glyph glyph-name="Zcaron" unicode="&#x17d;" horiz-adv-x="471" 
d="M56 692h356v-197c0 -95 -62 -188 -178 -188c-63 0 -109 -48 -109 -111v-119h298v-77h-375v196c0 105 80 188 186 188c73 0 101 58 101 111v120h-279v77zM265 769h-58c0 48 -39 87 -86 87v58c47 0 88 -23 115 -58c26 35 68 58 115 58v-58c-46 0 -84 -37 -86 -87z" />
    <glyph glyph-name="Eth" unicode="&#xd0;" horiz-adv-x="520" 
d="M0 326v58h78v308h172c126 0 212 -86 212 -202v-288c0 -116 -86 -202 -212 -202h-172v326h-78zM250 615h-94v-231h114v-58h-114v-249h94c84 0 135 51 135 125v288c0 74 -51 125 -135 125z" />
    <glyph glyph-name="Thorn" unicode="&#xde;" horiz-adv-x="501" 
d="M270 153h-115v-153h-77v692h77v-154h115c115 0 193 -77 193 -192s-77 -193 -193 -193zM386 346c0 73 -43 115 -116 115h-115v-231h115c73 0 116 43 116 116z" />
    <glyph glyph-name="section" unicode="&#xa7;" horiz-adv-x="502" 
d="M135 583v-92h108c122 0 200 -86 200 -191v-190c0 -115 -78 -197 -193 -197c-114 0 -192 89 -192 193h77c0 -63 43 -116 116 -116c71 0 115 49 115 119v82h-108c-122 0 -200 86 -200 191v200c0 115 78 197 193 197c114 0 192 -89 192 -193h-77c0 63 -43 116 -116 116
c-71 0 -115 -49 -115 -119zM135 384c0 -63 42 -116 123 -116h108v30c0 63 -42 116 -123 116h-108v-30z" />
    <glyph glyph-name="brokenbar" unicode="&#xa6;" horiz-adv-x="233" 
d="M155 384h-77v385h77v-385zM155 -154h-77v385h77v-385z" />
    <glyph glyph-name="cent" unicode="&#xa2;" horiz-adv-x="442" 
d="M269 615v-71c76 -15 135 -77 135 -159h-77c0 51 -43 87 -95 87s-97 -36 -97 -87v-231c0 -52 46 -87 98 -87s94 35 94 87h77c0 -83 -58 -146 -135 -160v-72h-77v73c-76 16 -134 78 -134 159v231c0 81 58 143 134 159v71h77z" />
    <glyph glyph-name="Euro" unicode="&#x20ac;" horiz-adv-x="501" 
d="M79 182v68h-79v58h79v76h-79v58h79v68c0 106 86 192 192 192s192 -86 192 -192h-77c0 64 -51 115 -115 115s-115 -51 -115 -115v-68h229v-58h-229v-76h229v-58h-229v-68c0 -64 51 -115 115 -115s115 51 115 115h77c0 -106 -86 -192 -192 -192s-192 86 -192 192z" />
    <glyph glyph-name="sterling" unicode="&#xa3;" horiz-adv-x="501" 
d="M463 510h-77c0 64 -51 115 -115 115s-115 -51 -115 -115v-136h171v-57h-171v-135c0 -64 51 -115 115 -115s115 51 115 115h77c0 -106 -86 -192 -192 -192c-59 0 -113 26 -148 68c-28 -35 -73 -58 -121 -58v77c54 2 77 45 77 96v144h-79v57h79v136c0 106 86 192 192 192
s192 -86 192 -192z" />
    <glyph glyph-name="yen" unicode="&#xa5;" horiz-adv-x="460" 
d="M230 384c64 0 115 51 115 115v193h77v-193c0 -93 -67 -171 -154 -188v-13h135v-58h-135v-58h135v-58h-135v-124h-77v124h-134v58h134v58h-134v58h134v13c-87 18 -153 95 -153 188v193h77v-193c0 -64 51 -115 115 -115z" />
    <glyph glyph-name="florin" unicode="&#x192;" horiz-adv-x="385" 
d="M59 -154v77c53 0 96 43 96 96v288h-97v77h97v135c0 96 77 173 173 173v-77c-53 0 -96 -43 -96 -96v-135h153v-77h-153v-288c0 -96 -78 -173 -173 -173z" />
    <glyph glyph-name="currency" unicode="&#xa4;" horiz-adv-x="499" 
d="M77 288c0 33 9 63 25 90l-64 83h67l32 -42c31 26 70 42 113 42c42 0 82 -16 112 -41l32 41h67l-64 -82c17 -27 26 -58 26 -91v-114c0 -34 -9 -65 -26 -91l64 -83h-67l-32 41c-30 -26 -70 -41 -112 -41c-43 0 -82 16 -113 42l-32 -42h-67l64 83c-16 27 -25 58 -25 91v114z
M346 288c0 53 -43 96 -96 96s-96 -43 -96 -96v-114c0 -54 43 -97 96 -97s96 43 96 97v114z" />
    <glyph glyph-name="copyright" unicode="&#xa9;" horiz-adv-x="769" 
d="M38 269c0 191 155 346 347 346c191 0 346 -155 346 -346s-155 -346 -346 -346c-192 0 -347 155 -347 346zM115 269c1 -148 121 -270 270 -270c148 0 269 122 269 270c0 149 -121 269 -269 269c-149 0 -269 -120 -270 -269zM385 76c-63 0 -125 52 -125 116v153
c0 64 62 116 125 116c64 0 125 -52 125 -116h-77c0 22 -26 39 -48 39c-21 0 -48 -17 -48 -39v-153c0 -21 27 -39 48 -39c22 0 48 18 48 39h77c0 -64 -61 -116 -125 -116z" />
    <glyph glyph-name="registered" unicode="&#xae;" horiz-adv-x="538" 
d="M38 586c0 127 104 230 231 230c128 0 231 -103 231 -230c0 -128 -103 -231 -231 -231c-127 0 -231 103 -231 231zM86 586c1 -101 82 -183 183 -183s183 82 183 183s-82 182 -183 182s-182 -81 -183 -182zM285 534c-1 14 -13 28 -28 28h-13v-101h-48v252h75
c42 0 76 -34 76 -76c0 -24 -11 -46 -39 -60c35 -23 16 -68 52 -68v-48c-41 0 -74 33 -75 73zM244 610h27c16 0 28 12 28 27s-12 28 -28 28h-27v-55z" />
    <glyph glyph-name="trademark" unicode="&#x2122;" horiz-adv-x="712" 
d="M673 384h-58v276c0 41 -27 61 -56 61c-45 0 -59 -39 -59 -60v-277h-58v277c0 21 -10 60 -56 60c-52 0 -59 -42 -59 -60v-277h-58v276c0 15 7 119 117 119c38 0 69 -15 85 -33c16 19 50 33 89 33c108 0 113 -106 113 -119v-276zM173 384h-57v327h-87v58h230v-58h-86v-327z
" />
    <glyph glyph-name="paragraph" unicode="&#xb6;" horiz-adv-x="463" 
d="M271 -77v77c42 0 76 35 77 77v615h77v-615c-1 -85 -69 -154 -154 -154zM78 499c0 107 86 193 193 193v-385c-107 0 -193 86 -193 192z" />
    <glyph glyph-name="aacute" unicode="&#xe1;" horiz-adv-x="465" 
d="M337 53c-28 -32 -68 -63 -134 -63h-1c-105 0 -174 68 -174 163c2 86 68 154 174 154h96v47c0 73 -36 107 -107 107h-96v77h96c115 0 184 -69 184 -184v-200c0 -41 37 -75 76 -77v-77c-39 0 -86 15 -114 53zM298 230h-96c-61 0 -97 -34 -97 -77c0 -53 35 -86 97 -86h1
c52 0 95 34 95 87v76zM174 625v58c48 0 86 38 87 86h57c0 -79 -64 -144 -144 -144z" />
    <glyph glyph-name="acircumflex" unicode="&#xe2;" horiz-adv-x="465" 
d="M337 53c-28 -32 -68 -63 -134 -63h-1c-105 0 -174 68 -174 163c2 86 68 154 174 154h96v47c0 73 -36 107 -107 107h-96v77h96c115 0 184 -69 184 -184v-200c0 -41 37 -75 76 -77v-77c-39 0 -86 15 -114 53zM298 230h-96c-61 0 -97 -34 -97 -77c0 -53 35 -86 97 -86h1
c52 0 95 34 95 87v76zM110 625v58c48 0 86 38 87 86h57c2 -50 40 -86 87 -86v-58c-48 0 -90 22 -116 57c-26 -35 -68 -57 -115 -57z" />
    <glyph glyph-name="agrave" unicode="&#xe0;" horiz-adv-x="465" 
d="M337 53c-28 -32 -68 -63 -134 -63h-1c-105 0 -174 68 -174 163c2 86 68 154 174 154h96v47c0 73 -36 107 -107 107h-96v77h96c115 0 184 -69 184 -184v-200c0 -41 37 -75 76 -77v-77c-39 0 -86 15 -114 53zM298 230h-96c-61 0 -97 -34 -97 -77c0 -53 35 -86 97 -86h1
c52 0 95 34 95 87v76zM123 769h58c0 -48 39 -86 86 -86v-58c-79 0 -144 64 -144 144z" />
    <glyph glyph-name="adieresis" unicode="&#xe4;" horiz-adv-x="465" 
d="M337 53c-28 -32 -68 -63 -134 -63h-1c-105 0 -174 68 -174 163c2 86 68 154 174 154h96v47c0 73 -36 107 -107 107h-96v77h96c115 0 184 -69 184 -184v-200c0 -41 37 -75 76 -77v-77c-39 0 -86 15 -114 53zM298 230h-96c-61 0 -97 -34 -97 -77c0 -53 35 -86 97 -86h1
c52 0 95 34 95 87v76zM341 692v-77h-77v77h77zM187 692v-77h-77v77h77z" />
    <glyph glyph-name="aring" unicode="&#xe5;" horiz-adv-x="465" 
d="M337 53c-28 -32 -68 -63 -134 -63h-1c-105 0 -174 68 -174 163c2 86 68 154 174 154h96v47c0 73 -36 107 -107 107h-96v77h96c115 0 184 -69 184 -184v-200c0 -41 37 -75 76 -77v-77c-39 0 -86 15 -114 53zM298 230h-96c-61 0 -97 -34 -97 -77c0 -53 35 -86 97 -86h1
c52 0 95 34 95 87v76zM124 692c0 56 46 101 101 101c56 0 101 -45 101 -101s-45 -101 -101 -101c-55 0 -101 45 -101 101zM173 692c0 -29 23 -53 52 -53c30 0 53 24 53 53s-23 53 -53 53c-29 0 -52 -24 -52 -53z" />
    <glyph glyph-name="atilde" unicode="&#xe3;" horiz-adv-x="465" 
d="M337 53c-28 -32 -68 -63 -134 -63h-1c-105 0 -174 68 -174 163c2 86 68 154 174 154h96v47c0 73 -36 107 -107 107h-96v77h96c115 0 184 -69 184 -184v-200c0 -41 37 -75 76 -77v-77c-39 0 -86 15 -114 53zM298 230h-96c-61 0 -97 -34 -97 -77c0 -53 35 -86 97 -86h1
c52 0 95 34 95 87v76zM172 721c53 0 72 -45 109 -45c26 0 48 22 48 48h57c0 -58 -47 -106 -105 -106c-52 0 -73 45 -109 45c-27 0 -48 -21 -48 -48h-58c0 59 47 106 106 106z" />
    <glyph glyph-name="ae" unicode="&#xe6;" horiz-adv-x="692" 
d="M606 77v-77h-106c-62 0 -116 22 -152 61c-27 -39 -75 -66 -145 -71h-1c-105 0 -174 68 -174 163c2 86 68 154 174 154h96v47c0 73 -36 107 -107 107h-96v77h96c61 0 110 -20 142 -56c30 40 78 66 139 66h1c105 0 171 -79 171 -174v-144h-269v-37c0 -72 52 -116 125 -116
h106zM472 471c-63 0 -97 -45 -97 -97v-67h192v67c0 52 -31 97 -94 97h-1zM298 230h-96c-61 0 -97 -34 -97 -77c0 -53 35 -86 97 -86h1c52 0 95 34 95 87v76z" />
    <glyph glyph-name="ccedilla" unicode="&#xe7;" horiz-adv-x="442" 
d="M58 154v231c0 95 79 163 174 163c94 0 172 -68 172 -163h-77c0 51 -43 87 -95 87s-97 -36 -97 -87c0 0 -1 -26 -1 -60c0 -69 1 -171 1 -171c0 -52 46 -87 98 -87s94 35 94 87h77c0 -86 -62 -150 -143 -162v-28c28 -19 48 -52 48 -89c0 -58 -48 -106 -106 -106h-29v58h29
c26 0 48 21 48 48c0 26 -20 46 -48 48v70c-82 12 -145 76 -145 161z" />
    <glyph glyph-name="cdotaccent" unicode="&#x10b;" horiz-adv-x="442" 
d="M58 154v231c0 95 79 163 174 163c94 0 172 -68 172 -163h-77c0 51 -43 87 -95 87s-97 -36 -97 -87v-231c0 -52 46 -87 98 -87s94 35 94 87h77c0 -95 -76 -164 -171 -164s-175 69 -175 164zM270 692v-77h-77v77h77z" />
    <glyph glyph-name="dcaron" unicode="&#x10f;" horiz-adv-x="496" 
d="M520 615h-57v153h57v-153zM58 154v231c0 95 78 163 172 163c36 0 71 -11 97 -37v258h77v-615c0 -43 36 -77 78 -77v-77c-45 0 -87 19 -115 51c-33 -38 -83 -61 -138 -61c-95 0 -171 69 -171 164zM229 67c52 0 98 35 98 87v231c0 51 -45 87 -97 87s-95 -36 -95 -87v-231
c0 -52 42 -87 94 -87z" />
    <glyph glyph-name="eacute" unicode="&#xe9;" horiz-adv-x="452" 
d="M366 77v-77h-106c-115 0 -202 78 -202 193v181c0 95 70 174 175 174s171 -79 171 -174v-144h-269v-37c0 -72 52 -116 125 -116h106zM233 471c-63 0 -98 -45 -98 -97v-67h192v67c0 52 -31 97 -94 97zM179 625v58c48 0 86 38 87 86h57c0 -79 -64 -144 -144 -144z" />
    <glyph glyph-name="ecircumflex" unicode="&#xea;" horiz-adv-x="452" 
d="M366 77v-77h-106c-115 0 -202 78 -202 193v181c0 95 70 174 175 174s171 -79 171 -174v-144h-269v-37c0 -72 52 -116 125 -116h106zM233 471c-63 0 -98 -45 -98 -97v-67h192v67c0 52 -31 97 -94 97zM106 625v58c48 0 86 38 87 86h57c2 -50 40 -86 87 -86v-58
c-48 0 -90 22 -116 57c-26 -35 -68 -57 -115 -57z" />
    <glyph glyph-name="edieresis" unicode="&#xeb;" horiz-adv-x="452" 
d="M366 77v-77h-106c-115 0 -202 78 -202 193v181c0 95 70 174 175 174s171 -79 171 -174v-144h-269v-37c0 -72 52 -116 125 -116h106zM233 471c-63 0 -98 -45 -98 -97v-67h192v67c0 52 -31 97 -94 97zM337 692v-77h-77v77h77zM183 692v-77h-77v77h77z" />
    <glyph glyph-name="egrave" unicode="&#xe8;" horiz-adv-x="452" 
d="M366 77v-77h-106c-115 0 -202 78 -202 193v181c0 95 70 174 175 174s171 -79 171 -174v-144h-269v-37c0 -72 52 -116 125 -116h106zM233 471c-63 0 -98 -45 -98 -97v-67h192v67c0 52 -31 97 -94 97zM119 769h58c0 -48 39 -86 86 -86v-58c-79 0 -144 64 -144 144z" />
    <glyph glyph-name="iacute" unicode="&#xed;" horiz-adv-x="233" 
d="M155 0h-77v538h77v-538zM78 625v58c48 0 86 38 87 86h57c0 -79 -64 -144 -144 -144z" />
    <glyph glyph-name="icircumflex" unicode="&#xee;" horiz-adv-x="233" 
d="M155 0h-77v538h77v-538zM1 625v58c48 0 86 38 87 86h57c2 -50 40 -86 87 -86v-58c-48 0 -90 22 -116 57c-26 -35 -68 -57 -115 -57z" />
    <glyph glyph-name="idieresis" unicode="&#xef;" horiz-adv-x="233" 
d="M155 0h-77v538h77v-538zM78 692v-77h-77v77h77zM232 692v-77h-77v77h77z" />
    <glyph glyph-name="igrave" unicode="&#xec;" horiz-adv-x="233" 
d="M155 0h-77v538h77v-538zM12 769h58c0 -48 39 -86 86 -86v-58c-79 0 -144 64 -144 144z" />
    <glyph glyph-name="ntilde" unicode="&#xf1;" horiz-adv-x="497" 
d="M128 488c32 38 82 60 137 60c94 0 172 -68 172 -163v-385h-77v385c0 51 -43 87 -95 87s-97 -36 -97 -87v-385h-77v385c0 42 -34 76 -77 77v76c45 0 85 -19 114 -50zM200 721c53 0 72 -45 109 -45c26 0 48 22 48 48h57c0 -58 -47 -106 -105 -106c-52 0 -73 45 -109 45
c-27 0 -48 -21 -48 -48h-58c0 59 47 106 106 106z" />
    <glyph glyph-name="oacute" unicode="&#xf3;" 
d="M404 385v-231c0 -95 -76 -164 -171 -164s-175 69 -175 164v231c0 95 79 163 174 163c94 0 172 -68 172 -163zM233 67c52 0 94 35 94 87v231c0 51 -43 87 -95 87s-97 -36 -97 -87v-231c0 -52 46 -87 98 -87zM169 625v58c48 0 86 38 87 86h57c0 -79 -64 -144 -144 -144z
" />
    <glyph glyph-name="ocircumflex" unicode="&#xf4;" 
d="M404 385v-231c0 -95 -76 -164 -171 -164s-175 69 -175 164v231c0 95 79 163 174 163c94 0 172 -68 172 -163zM233 67c52 0 94 35 94 87v231c0 51 -43 87 -95 87s-97 -36 -97 -87v-231c0 -52 46 -87 98 -87zM115 625v58c48 0 86 38 87 86h57c2 -50 40 -86 87 -86v-58
c-48 0 -90 22 -116 57c-26 -35 -68 -57 -115 -57z" />
    <glyph glyph-name="odieresis" unicode="&#xf6;" 
d="M404 385v-231c0 -95 -76 -164 -171 -164s-175 69 -175 164v231c0 95 79 163 174 163c94 0 172 -68 172 -163zM233 67c52 0 94 35 94 87v231c0 51 -43 87 -95 87s-97 -36 -97 -87v-231c0 -52 46 -87 98 -87zM346 692v-77h-77v77h77zM192 692v-77h-77v77h77z" />
    <glyph glyph-name="ograve" unicode="&#xf2;" 
d="M404 385v-231c0 -95 -76 -164 -171 -164s-175 69 -175 164v231c0 95 79 163 174 163c94 0 172 -68 172 -163zM233 67c52 0 94 35 94 87v231c0 51 -43 87 -95 87s-97 -36 -97 -87v-231c0 -52 46 -87 98 -87zM119 769h58c0 -48 39 -86 86 -86v-58c-79 0 -144 64 -144 144z
" />
    <glyph glyph-name="oslash" unicode="&#xf8;" 
d="M404 385v-231c0 -95 -76 -164 -171 -164c-45 0 -87 15 -119 42l-19 -32h-57l43 70c-15 24 -23 53 -23 84v231c0 95 79 163 174 163c44 0 85 -15 116 -42l19 31h57l-43 -70c15 -24 23 -51 23 -82zM135 385v-227l172 281c-17 21 -45 33 -75 33c-52 0 -97 -36 -97 -87z
M233 67c52 0 94 35 94 87v224l-171 -279c18 -20 46 -32 77 -32z" />
    <glyph glyph-name="otilde" unicode="&#xf5;" 
d="M404 385v-231c0 -95 -76 -164 -171 -164s-175 69 -175 164v231c0 95 79 163 174 163c94 0 172 -68 172 -163zM233 67c52 0 94 35 94 87v231c0 51 -43 87 -95 87s-97 -36 -97 -87v-231c0 -52 46 -87 98 -87zM177 721c53 0 72 -45 109 -45c26 0 48 22 48 48h57
c0 -58 -47 -106 -105 -106c-52 0 -73 45 -109 45c-27 0 -48 -21 -48 -48h-58c0 59 47 106 106 106z" />
    <glyph glyph-name="oe" unicode="&#x153;" horiz-adv-x="721" 
d="M635 77v-77h-106c-63 0 -117 23 -153 62c-31 -45 -83 -72 -143 -72c-95 0 -175 69 -175 164v231c0 95 79 163 174 163c54 0 103 -23 135 -60c30 36 77 60 134 60h1c105 0 171 -79 171 -174v-144h-269v-37c0 -72 52 -116 125 -116h106zM233 67c52 0 94 35 94 87v231
c0 51 -43 87 -95 87s-97 -36 -97 -87v-231c0 -52 46 -87 98 -87zM501 471c-63 0 -97 -45 -97 -97v-67h192v67c0 52 -31 97 -94 97h-1z" />
    <glyph glyph-name="rcaron" unicode="&#x159;" horiz-adv-x="322" 
d="M276 538h46v-76h-46c-72 0 -107 -36 -107 -107v-355h-77v385c0 42 -35 76 -78 77v76c46 0 89 -20 117 -52c28 32 69 52 145 52zM197 615h-58c0 48 -39 87 -86 87v58c47 0 88 -23 115 -58c26 35 68 58 115 58v-58c-46 0 -84 -37 -86 -87z" />
    <glyph glyph-name="scaron" unicode="&#x161;" horiz-adv-x="430" 
d="M211 472c-63 -1 -93 -45 -93 -87c0 -43 30 -77 93 -77c115 0 181 -59 181 -154c0 -85 -68 -164 -173 -164s-181 79 -181 164h77c0 -43 41 -87 104 -87s96 44 96 87c0 42 -31 77 -104 77c-115 0 -170 59 -170 154c0 85 65 163 170 163c101 0 168 -78 168 -163h-77
c0 41 -32 87 -91 87zM240 615h-58c0 48 -39 87 -86 87v58c47 0 88 -23 115 -58c26 35 68 58 115 58v-58c-46 0 -84 -37 -86 -87z" />
    <glyph glyph-name="uacute" unicode="&#xfa;" horiz-adv-x="497" 
d="M406 538v-384c0 -43 34 -77 77 -77v-77c-46 0 -87 20 -115 52c-29 -32 -69 -62 -135 -62c-105 0 -173 69 -173 174v374h77v-374c0 -63 43 -97 96 -97s96 44 96 97v374h77zM190 625v58c48 0 86 38 87 86h57c0 -79 -64 -144 -144 -144z" />
    <glyph glyph-name="ucircumflex" unicode="&#xfb;" horiz-adv-x="497" 
d="M406 538v-384c0 -43 34 -77 77 -77v-77c-46 0 -87 20 -115 52c-29 -32 -69 -62 -135 -62c-105 0 -173 69 -173 174v374h77v-374c0 -63 43 -97 96 -97s96 44 96 97v374h77zM126 625v58c48 0 86 38 87 86h57c2 -50 40 -86 87 -86v-58c-48 0 -90 22 -116 57
c-26 -35 -68 -57 -115 -57z" />
    <glyph glyph-name="udieresis" unicode="&#xfc;" horiz-adv-x="497" 
d="M406 538v-384c0 -43 34 -77 77 -77v-77c-46 0 -87 20 -115 52c-29 -32 -69 -62 -135 -62c-105 0 -173 69 -173 174v374h77v-374c0 -63 43 -97 96 -97s96 44 96 97v374h77zM357 692v-77h-77v77h77zM203 692v-77h-77v77h77z" />
    <glyph glyph-name="ugrave" unicode="&#xf9;" horiz-adv-x="497" 
d="M406 538v-384c0 -43 34 -77 77 -77v-77c-46 0 -87 20 -115 52c-29 -32 -69 -62 -135 -62c-105 0 -173 69 -173 174v374h77v-374c0 -63 43 -97 96 -97s96 44 96 97v374h77zM140 769h58c0 -48 39 -86 86 -86v-58c-79 0 -144 64 -144 144z" />
    <glyph glyph-name="yacute" unicode="&#xfd;" horiz-adv-x="468" 
d="M408 -47c0 -115 -80 -184 -175 -184h-96v77h96c52 0 97 34 97 107v74c-28 -27 -61 -37 -97 -37c-94 0 -172 68 -173 164v384h78v-385c0 -51 43 -87 95 -87s98 36 98 87v385h77v-585zM193 625v58c48 0 86 38 87 86h57c0 -79 -64 -144 -144 -144z" />
    <glyph glyph-name="ydieresis" unicode="&#xff;" horiz-adv-x="468" 
d="M408 -47c0 -115 -80 -184 -175 -184h-96v77h96c52 0 97 34 97 107v74c-28 -27 -61 -37 -97 -37c-94 0 -172 68 -173 164v384h78v-385c0 -51 43 -87 95 -87s98 36 98 87v385h77v-585zM350 692v-77h-77v77h77zM196 692v-77h-77v77h77z" />
    <glyph glyph-name="zcaron" unicode="&#x17e;" horiz-adv-x="446" 
d="M396 77v-77h-336v124c0 105 59 183 164 183c63 0 85 46 85 107v47h-249v77h326v-124c0 -105 -57 -183 -162 -183c-63 0 -87 -46 -87 -107v-47h259zM256 615h-58c0 48 -39 87 -86 87v58c47 0 88 -23 115 -58c26 35 68 58 115 58v-58c-46 0 -84 -37 -86 -87z" />
    <glyph glyph-name="germandbls" unicode="&#xdf;" horiz-adv-x="534" 
d="M93 517v69c0 115 77 193 182 193s181 -80 182 -193l-1 -106c-1 -50 -32 -105 -65 -127c52 -25 105 -79 105 -158c0 -106 -78 -195 -213 -195h-38v76h38c93 0 136 56 136 119s-43 112 -136 112h-38v77h38c54 0 97 43 97 96v106c0 71 -42 116 -105 116s-105 -43 -105 -116
v-586h-77v387c-2 41 -37 74 -79 74v77c28 0 56 -8 79 -21z" />
    <glyph glyph-name="eth" unicode="&#xf0;" horiz-adv-x="470" 
d="M404 153c-1 -95 -77 -163 -171 -163c-95 0 -175 69 -175 164v231c0 95 79 163 174 163c35 0 68 -13 95 -33v100c0 4 -1 9 -1 13l-95 -61v58l72 46c-14 13 -33 21 -53 21h-116v77h116c48 0 90 -22 119 -57l73 47v-57l-49 -31c7 -18 11 -37 11 -56v-462zM233 67
c52 0 94 35 94 87v231c0 51 -43 87 -95 87s-97 -36 -97 -87v-231c0 -52 46 -87 98 -87z" />
    <glyph glyph-name="thorn" unicode="&#xfe;" horiz-adv-x="483" 
d="M155 -231h-77v1000h77v-248c28 17 62 27 98 27c94 0 172 -68 172 -163v-231c0 -95 -76 -164 -171 -164c-37 0 -71 10 -99 28v-249zM254 67c52 0 94 35 94 87v231c0 51 -43 87 -95 87c-51 0 -96 -34 -98 -83v-235c0 -52 47 -87 99 -87z" />
    <glyph glyph-name="ellipsis" unicode="&#x2026;" horiz-adv-x="501" 
d="M155 77v-77h-77v77h77zM309 77v-77h-77v77h77zM463 77v-77h-77v77h77z" />
    <glyph glyph-name="ordmasculine" unicode="&#xba;" horiz-adv-x="285" 
d="M239 190h-199v58h199v-58zM142 300c-59 0 -102 46 -102 102v118c0 56 43 103 102 103s103 -47 103 -103v-118c0 -56 -44 -102 -103 -102zM142 569c-33 0 -48 -26 -48 -49v-118c0 -23 15 -48 48 -48s49 25 49 48v118c0 23 -16 49 -49 49z" />
    <glyph glyph-name="ordfeminine" unicode="&#xaa;" horiz-adv-x="294" 
d="M252 190h-199v58h199v-58zM30 396c0 49 43 92 102 92h50v28c0 33 -19 45 -48 45h-66v54h66c59 0 102 -39 102 -99v-121c0 -23 18 -33 38 -33v-55c-26 0 -50 11 -66 28c-13 -18 -39 -35 -76 -35c-61 0 -102 46 -102 96zM132 354c29 0 50 19 50 42v37h-50
c-30 0 -48 -15 -48 -37c0 -23 18 -42 48 -42z" />
    <glyph glyph-name="exclamdown" unicode="&#xa1;" horiz-adv-x="193" 
d="M115 461v-77h-77v77h77zM38 231h77v-462h-77v462z" />
    <glyph glyph-name="questiondown" unicode="&#xbf;" horiz-adv-x="385" 
d="M174 230h77v-192h-28c-81 0 -107 -56 -107 -98c0 -67 52 -94 93 -94h98v-77h-98c-84 0 -170 62 -170 173c0 75 46 152 135 162v126zM174 384v77h77v-77h-77z" />
    <glyph glyph-name="dagger" unicode="&#x2020;" horiz-adv-x="461" 
d="M269 0h-77v423h-154v77h154v192h77v-192h154v-77h-154v-423z" />
    <glyph glyph-name="daggerdbl" unicode="&#x2021;" 
d="M269 0h-77v192h-153v77h153v154h-153v77h153v192h77v-192h154v-77h-154v-154h154v-77h-154v-192z" />
    <glyph glyph-name="guillemotleft" unicode="&#xab;" horiz-adv-x="441" 
d="M403 134h-77c0 51 -41 94 -96 96v77c55 2 96 44 96 96h77c0 -54 -25 -103 -64 -135c39 -31 64 -80 64 -134zM211 134h-77c0 51 -41 94 -96 96v77c53 0 96 43 96 96h77c0 -54 -26 -103 -65 -135c39 -31 65 -80 65 -134z" />
    <glyph glyph-name="guillemotright" unicode="&#xbb;" horiz-adv-x="441" 
d="M115 134h-77c0 54 25 103 64 134c-39 32 -64 81 -64 135h77c0 -52 41 -94 96 -96v-77c-55 -2 -96 -45 -96 -96zM307 134h-77c0 54 26 103 65 134c-39 32 -65 81 -65 135h77c0 -53 43 -96 96 -96v-77c-55 -2 -96 -45 -96 -96z" />
    <glyph glyph-name="guilsinglleft" unicode="&#x2039;" horiz-adv-x="249" 
d="M211 134h-77c0 54 -43 96 -96 97v76c55 3 96 45 96 97h77c0 -55 -26 -104 -65 -135c39 -32 65 -80 65 -135z" />
    <glyph glyph-name="guilsinglright" unicode="&#x203a;" horiz-adv-x="249" 
d="M115 134h-77c0 55 25 103 64 135c-39 31 -64 80 -64 135h77c0 -53 43 -96 96 -97v-76c-53 -1 -96 -43 -96 -97z" />
    <glyph glyph-name="quotesinglbase" unicode="&#x201a;" horiz-adv-x="190" 
d="M95 0v77h77v-77c0 -85 -70 -154 -154 -154v77c42 0 77 34 77 77z" />
    <glyph glyph-name="quotedblbase" unicode="&#x201e;" horiz-adv-x="343" 
d="M95 0v77h77v-77c0 -85 -70 -154 -154 -154v77c42 0 77 34 77 77zM248 0v77h77v-77c0 -85 -69 -154 -153 -154v77c42 0 76 34 76 77z" />
    <glyph glyph-name="quoteleft" unicode="&#x2018;" horiz-adv-x="190" 
d="M95 692v-77h-77v77c0 85 70 154 154 154v-77c-42 0 -77 -34 -77 -77z" />
    <glyph glyph-name="quoteright" unicode="&#x2019;" horiz-adv-x="190" 
d="M95 769v77h77v-77c0 -85 -70 -154 -154 -154v77c42 0 77 34 77 77z" />
    <glyph glyph-name="quotedblleft" unicode="&#x201c;" horiz-adv-x="343" 
d="M248 692v-77h-77v77c0 85 70 154 154 154v-77c-42 0 -77 -34 -77 -77zM95 692v-77h-77v77c0 85 69 154 153 154v-77c-42 0 -76 -34 -76 -77z" />
    <glyph glyph-name="quotedblright" unicode="&#x201d;" horiz-adv-x="343" 
d="M95 769v77h77v-77c0 -85 -70 -154 -154 -154v77c42 0 77 34 77 77zM248 769v77h77v-77c0 -85 -69 -154 -153 -154v77c42 0 76 34 76 77z" />
    <glyph glyph-name="bullet" unicode="&#x2022;" horiz-adv-x="347" 
d="M58 269c0 64 52 116 115 116c64 0 116 -52 116 -116s-52 -115 -116 -115c-63 0 -115 51 -115 115z" />
    <glyph glyph-name="periodcentered" unicode="&#xb7;" horiz-adv-x="270" 
d="M58 269c0 43 34 77 77 77c42 0 77 -34 77 -77c0 -42 -35 -77 -77 -77c-43 0 -77 35 -77 77z" />
    <glyph glyph-name="endash" unicode="&#x2013;" horiz-adv-x="424" 
d="M404 230h-384v77h384v-77z" />
    <glyph glyph-name="emdash" unicode="&#x2014;" horiz-adv-x="732" 
d="M712 230h-692v77h692v-77z" />
    <glyph glyph-name="uni00AD" unicode="&#xad;" 
d="M404 229h-346v77h346v-77z" />
    <glyph glyph-name="degree" unicode="&#xb0;" horiz-adv-x="318" 
d="M58 614c0 56 46 101 101 101c56 0 101 -45 101 -101s-45 -101 -101 -101c-55 0 -101 45 -101 101zM107 614c0 -29 23 -53 52 -53c30 0 53 24 53 53s-23 53 -53 53c-29 0 -52 -24 -52 -53z" />
    <glyph glyph-name="onesuperior" unicode="&#xb9;" horiz-adv-x="220" 
d="M162 385h-58v261c-15 -17 -51 -21 -68 -21h-28v58h28c36 0 68 21 68 58v28h58v-384z" />
    <glyph glyph-name="twosuperior" unicode="&#xb2;" horiz-adv-x="312" 
d="M216 659c0 39 -29 62 -60 62s-60 -23 -60 -62h-58c0 71 55 120 118 120c69 0 118 -49 118 -120c0 -61 -47 -111 -118 -111c-48 0 -60 -33 -60 -63v-43h178v-57h-236v100c0 65 34 121 118 121c40 0 60 24 60 53z" />
    <glyph glyph-name="threesuperior" unicode="&#xb3;" horiz-adv-x="301" 
d="M263 659c0 -33 -19 -69 -46 -82c27 -13 46 -49 46 -82c0 -61 -42 -120 -116 -120c-65 0 -119 49 -119 120h57c0 -39 26 -62 60 -62c36 0 61 23 61 62c0 30 -25 53 -63 53h-57v58h62c35 2 58 24 58 53c0 39 -25 62 -61 62c-34 0 -60 -23 -60 -62h-57c0 71 54 120 119 120
c74 0 116 -59 116 -120z" />
    <glyph glyph-name="perthousand" unicode="&#x2030;" horiz-adv-x="994" 
d="M159 0l326 692h58l-327 -692h-57zM166 297c-61 0 -118 50 -118 111v183c0 61 57 111 118 111s118 -50 118 -111v-183c0 -61 -57 -111 -118 -111zM166 355c29 0 60 24 60 53v183c0 29 -31 53 -60 53s-60 -24 -60 -53v-183c0 -29 31 -53 60 -53zM536 -10
c-61 0 -118 50 -118 111v183c0 61 57 111 118 111s118 -50 118 -111v-183c0 -61 -57 -111 -118 -111zM536 48c29 0 60 24 60 53v183c0 29 -31 53 -60 53s-60 -24 -60 -53v-183c0 -29 31 -53 60 -53zM828 -10c-61 0 -118 50 -118 111v183c0 61 57 111 118 111
s118 -50 118 -111v-183c0 -61 -57 -111 -118 -111zM828 48c29 0 60 24 60 53v183c0 29 -31 53 -60 53s-60 -24 -60 -53v-183c0 -29 31 -53 60 -53z" />
    <glyph glyph-name="onehalf" unicode="&#xbd;" horiz-adv-x="657" 
d="M556 274c0 39 -29 62 -60 62s-60 -23 -60 -62h-58c0 71 55 120 118 120c69 0 118 -49 118 -120c0 -61 -47 -111 -118 -111c-48 0 -60 -33 -60 -63v-43h178v-57h-236v100c0 65 34 121 118 121c40 0 60 24 60 53zM119 0l326 692h58l-327 -692h-57zM197 307h-58v261
c-15 -17 -51 -21 -68 -21h-28v58h28c36 0 68 21 68 58v29h58v-385z" />
    <glyph glyph-name="onequarter" unicode="&#xbc;" horiz-adv-x="657" 
d="M119 0l326 692h58l-327 -692h-57zM614 0h-58v173h-62c-59 0 -106 47 -106 105v106h58v-106c0 -26 21 -48 48 -48h62v154h58v-384zM197 307h-58v261c-15 -17 -51 -21 -68 -21h-28v58h28c36 0 68 21 68 58v28h58v-384z" />
    <glyph glyph-name="threequarters" unicode="&#xbe;" horiz-adv-x="692" 
d="M154 0l326 692h58l-327 -692h-57zM649 0h-58v173h-62c-59 0 -106 47 -106 105v106h58v-106c0 -26 21 -48 48 -48h62v154h58v-384zM279 582c0 -33 -19 -69 -46 -82c27 -13 46 -49 46 -82c0 -61 -42 -120 -116 -120c-65 0 -119 49 -119 120h57c0 -39 26 -62 60 -62
c36 0 61 23 61 62c0 30 -25 53 -63 53h-57v58h62c35 2 58 24 58 53c0 39 -25 62 -61 62c-34 0 -60 -23 -60 -62h-57c0 71 54 120 119 120c74 0 116 -59 116 -120z" />
    <glyph glyph-name="logicalnot" unicode="&#xac;" horiz-adv-x="385" 
d="M327 384v-193h-77v116h-192v77h269z" />
    <glyph glyph-name="multiply" unicode="&#xd7;" horiz-adv-x="497" 
d="M58 481l55 55l135 -136l136 136l55 -55l-136 -136l136 -135l-55 -55l-136 136l-135 -136l-55 55l136 135z" />
    <glyph glyph-name="divide" unicode="&#xf7;" horiz-adv-x="577" 
d="M519 307h-461v77h461v-77zM327 192v-77h-77v77h77zM327 576v-77h-77v77h77z" />
    <glyph glyph-name="plusminus" unicode="&#xb1;" horiz-adv-x="577" 
d="M327 154h-77v192h-192v77h192v192h77v-192h192v-77h-192v-192zM519 0h-461v77h461v-77z" />
    <glyph glyph-name="Ebreve.small.alt" horiz-adv-x="456" 
d="M137 721h58c0 -27 21 -48 48 -48c26 0 48 22 48 48h58c0 -58 -48 -106 -106 -106c-59 0 -106 48 -106 106zM60 394c0 85 69 164 174 164s172 -79 172 -164h-76c-1 43 -34 87 -96 87s-97 -44 -97 -87c0 -41 35 -82 97 -82h96v-76h-96c-62 0 -97 -41 -97 -82
c0 -43 35 -87 97 -87s95 44 96 87h76c0 -85 -67 -164 -172 -164s-174 79 -174 164c0 56 30 102 62 120c-32 18 -62 69 -62 120z" />
    <glyph glyph-name="Ecircumflexsmall.alt" horiz-adv-x="456" 
d="M118 625v58c48 0 86 38 87 86h57c2 -50 40 -86 87 -86v-58c-48 0 -90 22 -116 57c-26 -35 -68 -57 -115 -57zM60 394c0 85 69 164 174 164s172 -79 172 -164h-76c-1 43 -34 87 -96 87s-97 -44 -97 -87c0 -41 35 -82 97 -82h96v-76h-96c-62 0 -97 -41 -97 -82
c0 -43 35 -87 97 -87s95 44 96 87h76c0 -85 -67 -164 -172 -164s-174 79 -174 164c0 56 30 102 62 120c-32 18 -62 69 -62 120z" />
    <glyph glyph-name="Qsmall.alt" horiz-adv-x="470" 
d="M410 395v-241c0 -51 -22 -94 -57 -124c48 -24 57 -74 57 -118c0 -43 37 -66 80 -66v-77c-85 0 -157 58 -157 143c0 41 -35 77 -87 78h-7c-95 0 -175 69 -175 164v241c0 95 79 163 174 163c94 0 172 -68 172 -163zM239 67c52 0 94 35 94 87v241c0 51 -43 87 -95 87
s-97 -36 -97 -87v-241c0 -52 46 -87 98 -87z" />
    <glyph glyph-name="Rsmall.alt1" horiz-adv-x="490" 
d="M336 399c0 52 -40 82 -94 82c-57 0 -91 -44 -91 -84v-85h95c53 0 90 45 90 87zM413 399c0 -53 -29 -107 -75 -133c54 -43 92 -113 92 -190v-76h-77v76c0 95 -68 159 -162 159h-40v-235h-77v398c0 97 76 160 168 160c96 0 171 -64 171 -159z" />
    <glyph glyph-name="Racute.small.alt1" horiz-adv-x="490" 
d="M194 625v58c48 0 86 38 87 86h57c0 -79 -64 -144 -144 -144zM336 399c0 52 -40 82 -94 82c-57 0 -91 -44 -91 -84v-85h95c53 0 90 45 90 87zM413 399c0 -53 -29 -107 -75 -133c54 -43 92 -113 92 -190v-76h-77v76c0 95 -68 159 -162 159h-40v-235h-77v398
c0 97 76 160 168 160c96 0 171 -64 171 -159z" />
    <glyph glyph-name="Rcaron.small.alt1" horiz-adv-x="490" 
d="M269 615h-58c0 48 -39 87 -86 87v58c47 0 88 -23 115 -58c26 35 68 58 115 58v-58c-46 0 -84 -37 -86 -87zM336 399c0 52 -40 82 -94 82c-57 0 -91 -44 -91 -84v-85h95c53 0 90 45 90 87zM413 399c0 -53 -29 -107 -75 -133c54 -43 92 -113 92 -190v-76h-77v76
c0 95 -68 159 -162 159h-40v-235h-77v398c0 97 76 160 168 160c96 0 171 -64 171 -159z" />
    <glyph glyph-name="Rcommaaccent.small.alt1" horiz-adv-x="490" 
d="M336 399c0 52 -40 82 -94 82c-57 0 -91 -44 -91 -84v-85h95c53 0 90 45 90 87zM413 399c0 -53 -29 -107 -75 -133c54 -43 92 -113 92 -190v-76h-77v76c0 95 -68 159 -162 159h-40v-235h-77v398c0 97 76 160 168 160c96 0 171 -64 171 -159zM215 -125v58h58v-58
c0 -58 -48 -106 -106 -106v58c26 0 48 21 48 48z" />
    <glyph glyph-name="Rsmall.alt" horiz-adv-x="498" 
d="M328 120c-18 71 -68 115 -147 115h-30v-235h-77v398c0 97 75 160 167 160c101 0 168 -69 168 -164c0 -55 -32 -108 -81 -135c34 -31 60 -69 73 -118c9 -38 38 -64 77 -64v-77c-73 0 -134 50 -150 120zM151 312h85c53 0 96 40 96 82c0 52 -32 87 -91 87
c-57 0 -90 -44 -90 -84v-85z" />
    <glyph glyph-name="mu" unicode="&#xb5;" horiz-adv-x="519" 
d="M155 -231h-77v769h77v-374c0 -63 43 -97 96 -97s96 44 96 97v374h77v-384c0 -43 34 -77 77 -77v-77c-46 0 -87 20 -115 52c-29 -32 -69 -62 -135 -62c-37 0 -68 13 -96 44v-265z" />
  </font>
</defs>
</svg>
